<svg width="105" height="63" viewBox="0 0 105 63" fill="none" xmlns="http://www.w3.org/2000/svg">
<g clip-path="url(#clip0_1_6934)">
<path d="M29.8871 22.9882C29.7705 26.6263 31.6043 28.2373 31.6496 29.2605C31.628 29.4687 31.5565 29.6688 31.4409 29.844C31.3254 30.0192 31.1692 30.1645 30.9854 30.2676L28.9119 31.7068C28.6436 31.8933 28.3273 32.0002 27.9999 32.0152C27.9302 32.0119 26.6732 32.3091 24.6823 27.9016C23.4676 29.405 21.9221 30.6128 20.1642 31.4327C18.4062 32.2526 16.4823 32.6628 14.5398 32.6319C11.9026 32.7749 4.75541 31.1478 5.12313 23.6034C4.86556 17.4548 10.6406 13.6352 16.6134 13.9581C17.7635 13.9613 20.1124 14.0175 24.2254 14.9652V12.4562C24.6612 8.20619 21.8441 4.90862 16.9665 5.40334C16.5777 5.40494 13.8238 5.32303 9.5407 7.02723C8.34843 7.57013 8.19616 7.48018 7.79927 7.48018C6.5989 7.48018 7.09298 4.03002 7.32301 3.59313C8.167 2.56515 13.1321 0.645723 18.0049 0.673028C21.263 0.387326 24.5036 1.38434 27.0263 3.44857C28.0518 4.58591 28.8341 5.91753 29.3261 7.36301C29.8181 8.8085 30.0095 10.3379 29.8887 11.8587L29.8871 22.9882ZM15.8876 28.1907C21.1411 28.1153 23.3653 24.9831 23.8723 23.2966C24.2708 21.6824 24.2044 20.6608 24.2044 18.8956C22.6379 18.5229 20.3829 18.1166 17.7959 18.1133C15.3417 17.9302 10.8593 19.0176 11.0343 23.295C10.8334 25.9918 12.8357 28.3385 15.8876 28.1907ZM43.5756 31.8931C42.3023 32.0087 41.7094 31.1125 41.5215 30.2274L33.4542 3.78106C33.2971 3.33453 33.1934 2.87355 33.1432 2.40292C33.1134 2.2089 33.1626 2.01109 33.2798 1.85298C33.3971 1.69486 33.5728 1.58936 33.7685 1.55966C33.8074 1.55323 33.4234 1.55966 37.3729 1.55966C38.7952 1.41831 39.2585 2.52821 39.4059 3.22531L45.1923 25.8457L50.564 3.22531C50.6499 2.70811 51.0403 1.44723 52.6375 1.58054H55.4173C55.7689 1.55163 57.2171 1.50023 57.4714 3.24619L62.8852 26.1557L68.858 3.24619C68.9357 2.89603 69.2986 1.41992 70.912 1.58054H74.1066C74.2442 1.55966 75.1028 1.45044 74.957 2.95868C74.8874 3.25583 75.5094 1.24645 66.4118 30.2483C66.2256 31.1333 65.631 32.0296 64.3578 31.914H61.3301C59.5579 32.0987 59.3036 30.3624 59.276 30.1873L53.9043 8.16121L48.5942 30.1648C48.5682 30.3399 48.3139 32.0762 46.5401 31.8915H43.5756V31.8931ZM87.8776 32.7974C86.9251 32.799 82.3828 32.7492 78.5857 30.8233C78.2074 30.6645 77.8853 30.398 77.66 30.0574C77.4348 29.7168 77.3166 29.3176 77.3205 28.9103V27.1837C77.3205 25.8264 78.3249 26.0754 78.7509 26.2376C80.3773 26.8897 81.4206 27.3844 83.418 27.7796C89.355 28.989 91.9664 27.4101 92.6062 27.06C94.7365 25.8055 94.9049 22.9352 93.4567 21.4462C91.759 20.0344 90.9491 19.9814 84.85 18.0732C84.0983 17.866 77.7709 15.8871 77.7563 9.66303C77.6575 5.12707 81.8142 0.639297 89.0181 0.67624C91.0705 0.674634 96.5395 1.33961 98.0201 3.18515C98.2388 3.52085 98.3473 3.91598 98.3311 4.31593V5.93982C98.3311 6.65298 98.0687 7.00956 97.5422 7.00956C96.2932 6.87142 94.0771 5.21541 89.5786 5.28287C88.4624 5.22505 83.1166 5.42904 83.3564 9.2936C83.2867 12.339 87.6671 13.481 88.1676 13.6127C94.0739 15.3747 96.0486 15.6671 98.3927 18.3639C101.169 21.9377 99.6724 26.1219 99.0973 27.2688C96.0065 33.2905 88.0137 32.8006 87.8776 32.7974ZM94.3898 49.6402C83.0454 57.9475 66.5771 62.3695 52.516 62.3695C33.5434 62.4935 15.2102 55.5763 1.12027 42.9776C0.0624497 42.0315 0.995534 40.7353 2.28176 41.4565C17.9117 50.3215 35.608 54.9794 53.6143 54.968C67.061 54.8965 80.361 52.1918 92.7504 47.0092C94.6587 46.2061 96.277 48.262 94.3898 49.6402ZM99.1184 44.2931C97.6669 42.4427 89.5154 43.4289 85.8657 43.861C84.7657 43.9847 84.5795 43.0386 85.5757 42.3399C92.0668 37.8152 102.728 39.1114 103.952 40.6325C105.175 42.1536 103.62 52.745 97.5438 57.8046C96.6107 58.5868 95.7181 58.174 96.1328 57.146C97.5001 53.7328 100.57 46.1451 99.1184 44.2931Z" fill="#737373"/>
</g>
<defs>
<clipPath id="clip0_1_6934">
<rect width="104" height="62" fill="white" transform="translate(0.5 0.5)"/>
</clipPath>
</defs>
</svg>
