<svg width="56" height="46" viewBox="0 0 56 46" fill="none" xmlns="http://www.w3.org/2000/svg">
<g clip-path="url(#clip0_1_5036)">
<g clip-path="url(#clip1_1_5036)">
<path d="M15.0004 16.5C15.0004 16.3674 15.053 16.2402 15.1468 16.1464C15.2406 16.0527 15.3678 16 15.5004 16H17.0004C17.1119 16 17.2202 16.0374 17.3081 16.106C17.396 16.1747 17.4584 16.2708 17.4854 16.379L17.8904 18H29.5004C29.5738 18.0001 29.6463 18.0163 29.7127 18.0476C29.7792 18.0788 29.8379 18.1243 29.8848 18.1808C29.9316 18.2373 29.9655 18.3035 29.9839 18.3745C30.0023 18.4456 30.0049 18.5198 29.9914 18.592L28.4914 26.592C28.4699 26.7066 28.4091 26.8101 28.3195 26.8846C28.2298 26.9591 28.1169 26.9999 28.0004 27H19.0004C18.8838 26.9999 18.7709 26.9591 18.6813 26.8846C18.5916 26.8101 18.5308 26.7066 18.5094 26.592L17.0104 18.607L16.6104 17H15.5004C15.3678 17 15.2406 16.9473 15.1468 16.8536C15.053 16.7598 15.0004 16.6326 15.0004 16.5ZM18.1024 19L19.4154 26H27.5854L28.8984 19H18.1024ZM20.0004 27C19.4699 27 18.9612 27.2107 18.5862 27.5858C18.2111 27.9609 18.0004 28.4696 18.0004 29C18.0004 29.5304 18.2111 30.0391 18.5862 30.4142C18.9612 30.7893 19.4699 31 20.0004 31C20.5308 31 21.0395 30.7893 21.4146 30.4142C21.7897 30.0391 22.0004 29.5304 22.0004 29C22.0004 28.4696 21.7897 27.9609 21.4146 27.5858C21.0395 27.2107 20.5308 27 20.0004 27ZM27.0004 27C26.4699 27 25.9612 27.2107 25.5862 27.5858C25.2111 27.9609 25.0004 28.4696 25.0004 29C25.0004 29.5304 25.2111 30.0391 25.5862 30.4142C25.9612 30.7893 26.4699 31 27.0004 31C27.5308 31 28.0395 30.7893 28.4146 30.4142C28.7897 30.0391 29.0004 29.5304 29.0004 29C29.0004 28.4696 28.7897 27.9609 28.4146 27.5858C28.0395 27.2107 27.5308 27 27.0004 27ZM20.0004 28C20.2656 28 20.5199 28.1054 20.7075 28.2929C20.895 28.4804 21.0004 28.7348 21.0004 29C21.0004 29.2652 20.895 29.5196 20.7075 29.7071C20.5199 29.8946 20.2656 30 20.0004 30C19.7351 30 19.4808 29.8946 19.2933 29.7071C19.1057 29.5196 19.0004 29.2652 19.0004 29C19.0004 28.7348 19.1057 28.4804 19.2933 28.2929C19.4808 28.1054 19.7351 28 20.0004 28ZM27.0004 28C27.2656 28 27.5199 28.1054 27.7075 28.2929C27.895 28.4804 28.0004 28.7348 28.0004 29C28.0004 29.2652 27.895 29.5196 27.7075 29.7071C27.5199 29.8946 27.2656 30 27.0004 30C26.7351 30 26.4808 29.8946 26.2933 29.7071C26.1057 29.5196 26.0004 29.2652 26.0004 29C26.0004 28.7348 26.1057 28.4804 26.2933 28.2929C26.4808 28.1054 26.7351 28 27.0004 28Z" fill="#23A6F0"/>
</g>
<path d="M36.5632 18.612H39.6112V27H38.2672V19.872H36.5632V18.612Z" fill="#23A6F0"/>
</g>
<defs>
<clipPath id="clip0_1_5036">
<rect width="56" height="46" fill="white" transform="translate(0.000366211)"/>
</clipPath>
<clipPath id="clip1_1_5036">
<rect width="16" height="16" fill="white" transform="translate(15.0004 15)"/>
</clipPath>
</defs>
</svg>
