<svg width="17" height="11" viewBox="0 0 17 11" fill="none" xmlns="http://www.w3.org/2000/svg">
<g clip-path="url(#clip0_232_1657)">
<path fill-rule="evenodd" clip-rule="evenodd" d="M16.7957 0.204347C16.8604 0.268958 16.9118 0.345714 16.9469 0.430218C16.9819 0.514722 17 0.605313 17 0.696803C17 0.788294 16.9819 0.878885 16.9469 0.963389C16.9118 1.04789 16.8604 1.12465 16.7957 1.18926L7.05781 10.9271C6.9932 10.9919 6.91645 11.0433 6.83194 11.0783C6.74744 11.1134 6.65685 11.1314 6.56536 11.1314C6.47387 11.1314 6.38328 11.1134 6.29877 11.0783C6.21427 11.0433 6.13751 10.9919 6.0729 10.9271L1.20398 6.05818C1.07337 5.92757 1 5.75043 1 5.56572C1 5.38102 1.07337 5.20387 1.20398 5.07327C1.33459 4.94266 1.51173 4.86928 1.69644 4.86928C1.88115 4.86928 2.05829 4.94266 2.1889 5.07327L6.56536 9.45112L15.8107 0.204347C15.8754 0.139572 15.9521 0.08818 16.0366 0.0531148C16.1211 0.0180496 16.2117 0 16.3032 0C16.3947 0 16.4853 0.0180496 16.5698 0.0531148C16.6543 0.08818 16.731 0.139572 16.7957 0.204347Z" fill="white"/>
</g>
<defs>
<clipPath id="clip0_232_1657">
<rect width="16" height="11" fill="white" transform="translate(0.5)"/>
</clipPath>
</defs>
</svg>
