<svg width="30" height="30" viewBox="0 0 30 30" fill="none" xmlns="http://www.w3.org/2000/svg">
<g clip-path="url(#clip0_232_721)">
<path d="M14.9998 7.30838C10.7435 7.30838 7.30854 10.7434 7.30854 14.9996C7.30854 19.2559 10.7435 22.6909 14.9998 22.6909C19.2561 22.6909 22.6911 19.2559 22.6911 14.9996C22.6911 10.7434 19.2561 7.30838 14.9998 7.30838ZM14.9998 19.9984C12.2473 19.9984 10.001 17.7521 10.001 14.9996C10.001 12.2471 12.2473 10.0009 14.9998 10.0009C17.7523 10.0009 19.9986 12.2471 19.9986 14.9996C19.9986 17.7521 17.7523 19.9984 14.9998 19.9984ZM23.0061 5.20088C22.0123 5.20088 21.2098 6.00338 21.2098 6.99713C21.2098 7.99088 22.0123 8.79338 23.0061 8.79338C23.9998 8.79338 24.8023 7.99463 24.8023 6.99713C24.8026 6.76116 24.7563 6.52745 24.6662 6.30939C24.576 6.09132 24.4437 5.89319 24.2769 5.72633C24.11 5.55947 23.9119 5.42718 23.6938 5.33701C23.4757 5.24684 23.242 5.20059 23.0061 5.20088ZM29.9923 14.9996C29.9923 12.9296 30.0111 10.8784 29.8948 8.81213C29.7786 6.41213 29.2311 4.28213 27.4761 2.52713C25.7173 0.768381 23.5911 0.224631 21.1911 0.108381C19.1211 -0.00786902 17.0698 0.010881 15.0035 0.010881C12.9335 0.010881 10.8823 -0.00786902 8.81604 0.108381C6.41604 0.224631 4.28604 0.772131 2.53104 2.52713C0.772288 4.28588 0.228537 6.41213 0.112287 8.81213C-0.00396278 10.8821 0.0147873 12.9334 0.0147873 14.9996C0.0147873 17.0659 -0.00396278 19.1209 0.112287 21.1871C0.228537 23.5871 0.776038 25.7171 2.53104 27.4721C4.28979 29.2309 6.41604 29.7746 8.81604 29.8909C10.886 30.0071 12.9373 29.9884 15.0035 29.9884C17.0735 29.9884 19.1248 30.0071 21.1911 29.8909C23.5911 29.7746 25.7211 29.2271 27.4761 27.4721C29.2348 25.7134 29.7786 23.5871 29.8948 21.1871C30.0148 19.1209 29.9923 17.0696 29.9923 14.9996ZM26.6923 23.8421C26.4186 24.5246 26.0886 25.0346 25.5598 25.5596C25.0311 26.0884 24.5248 26.4184 23.8423 26.6921C21.8698 27.4759 17.1861 27.2996 14.9998 27.2996C12.8135 27.2996 8.12604 27.4759 6.15354 26.6959C5.47104 26.4221 4.96104 26.0921 4.43604 25.5634C3.90729 25.0346 3.57729 24.5284 3.30354 23.8459C2.52354 21.8696 2.69979 17.1859 2.69979 14.9996C2.69979 12.8134 2.52354 8.12588 3.30354 6.15338C3.57729 5.47088 3.90729 4.96088 4.43604 4.43588C4.96479 3.91088 5.47104 3.57713 6.15354 3.30338C8.12604 2.52338 12.8135 2.69963 14.9998 2.69963C17.1861 2.69963 21.8736 2.52338 23.8461 3.30338C24.5286 3.57713 25.0386 3.90713 25.5636 4.43588C26.0923 4.96463 26.4223 5.47088 26.6961 6.15338C27.4761 8.12588 27.2998 12.8134 27.2998 14.9996C27.2998 17.1859 27.4761 21.8696 26.6923 23.8421Z" fill="#252B42"/>
</g>
<defs>
<clipPath id="clip0_232_721">
<rect width="30" height="30" fill="white"/>
</clipPath>
</defs>
</svg>
