<svg width="30" height="25" viewBox="0 0 30 25" fill="none" xmlns="http://www.w3.org/2000/svg">
<g clip-path="url(#clip0_232_716)">
<path d="M30 2.98277C28.8766 3.48044 27.685 3.80711 26.4649 3.95191C27.7358 3.19019 28.7116 1.98398 29.1711 0.546797C27.963 1.26373 26.6412 1.76886 25.2628 2.04035C24.14 0.844219 22.5405 0.0966797 20.7702 0.0966797C17.3711 0.0966797 14.6152 2.85246 14.6152 6.25137C14.6152 6.73383 14.6696 7.20351 14.7745 7.6541C9.6593 7.39734 5.12414 4.94707 2.0884 1.22332C1.55871 2.13234 1.2552 3.18973 1.2552 4.31754C1.2552 6.45293 2.34188 8.33672 3.99328 9.44051C3.01588 9.40989 2.05998 9.14591 1.20539 8.67058C1.20504 8.69637 1.20504 8.72215 1.20504 8.74804C1.20504 11.7301 3.3266 14.2178 6.14215 14.7832C5.2358 15.0297 4.28511 15.0658 3.3627 14.8887C4.14586 17.3339 6.41895 19.1133 9.11215 19.1631C7.0057 20.8138 4.35176 21.7978 1.46824 21.7978C0.971367 21.7978 0.481523 21.7686 0 21.7118C2.72379 23.4581 5.95898 24.4771 9.43477 24.4771C20.7559 24.4771 26.9466 15.0984 26.9466 6.96515C26.9466 6.6982 26.9407 6.43277 26.9288 6.16887C28.1337 5.29779 29.1737 4.21888 30 2.98277Z" fill="#252B42"/>
</g>
<defs>
<clipPath id="clip0_232_716">
<rect width="30" height="24.4922" fill="white"/>
</clipPath>
</defs>
</svg>
