<svg width="102" height="75" viewBox="0 0 102 75" fill="none" xmlns="http://www.w3.org/2000/svg">
<path d="M102 0.145508C89.1225 8.82801 87.7519 15.1293 86.6362 17.057C85.5684 19.0332 84.7716 26.8248 82.9228 30.5991C81.0581 34.422 74.2847 37.4349 72.3881 38.6984C70.5234 39.9619 67.8778 44.8701 65.7103 49.098C48.4819 48.3853 39.0309 55.3831 24.4003 64.26C29.0859 62.6887 31.3012 61.5548 31.3012 61.5548C46.3144 55.7233 53.5022 50.4911 76.1016 53.585C76.2769 53.585 76.4044 53.6822 76.5478 53.7146C77.1694 54.071 77.3925 54.8323 77.0419 55.4641L68.4516 70.9824C68.0531 71.7438 67.2084 72.1487 66.3637 71.9706C46.155 68.1153 30.2016 74.7729 15.5391 74.9835C3.84094 75.1617 0 69.557 0 69.2978C0 69.1196 0.095625 69.0224 0.270938 69.0224C0.270938 69.0224 6.375 69.0224 16.7025 66.544C28.4325 43.8172 38.8875 35.8636 50.2669 35.8636C50.2669 35.8636 61.6941 35.8636 64.7062 45.8906C68.34 39.4598 69.2166 37.9209 69.2166 37.9209C70.0612 36.3982 74.7947 25.4155 82.9866 15.0159C91.1944 4.64875 97.3941 2.07315 102 0.145508Z" fill="#737373"/>
</svg>
