<svg width="18" height="17" viewBox="0 0 18 17" fill="none" xmlns="http://www.w3.org/2000/svg">
<path d="M9.00089 3.95324L7.63651 2.55662L7.63594 2.55605C7.28804 2.20177 6.87304 1.92037 6.41517 1.72827C5.95731 1.53617 5.46575 1.43723 4.96922 1.43723C4.47269 1.43723 3.98113 1.53617 3.52326 1.72827C3.06544 1.92035 2.65047 2.20172 2.3026 2.55595C1.58865 3.28087 1.18846 4.25752 1.18846 5.275C1.18846 6.29259 1.58874 7.26935 2.30284 7.9943L2.30313 7.99459L8.77812 14.5508L9.00047 14.776L9.22281 14.5508L15.6978 7.99459L15.6981 7.9943C16.4122 7.26935 16.8125 6.29259 16.8125 5.275C16.8125 4.25753 16.4123 3.28088 15.6983 2.55595C15.3506 2.20148 14.9357 1.91997 14.4778 1.72791C14.02 1.53591 13.5286 1.43718 13.0322 1.4375C13.0319 1.4375 13.0317 1.4375 13.0315 1.4375L13.0317 1.75M9.00089 3.95324L10.3578 2.56949L10.3586 2.5687L10.5817 2.7875M9.00089 3.95324L10.357 2.57036M9.00089 3.95324L10.357 2.57036M13.0317 1.75C12.5746 1.74935 12.122 1.84089 11.701 2.01915C11.2801 2.19741 10.8994 2.45874 10.5817 2.7875M13.0317 1.75C13.4868 1.74962 13.9373 1.84008 14.3569 2.01609C14.7766 2.1921 15.1569 2.45011 15.4755 2.775L13.0317 1.75ZM10.5817 2.7875L10.357 2.57036M10.5817 2.7875L10.357 2.57036M13.0316 0.812502L13.0315 0.812502C12.4516 0.81201 11.8774 0.927301 11.3427 1.15161C10.8079 1.37593 10.3233 1.70475 9.91735 2.11879L9.91618 2.11998L9.22243 2.81998L9.00047 3.04394L8.77851 2.81998L8.08476 2.11998L8.08392 2.11913C7.67735 1.70575 7.19255 1.37744 6.6578 1.15333C6.12305 0.929228 5.54903 0.813811 4.96922 0.813811C4.38941 0.813811 3.81539 0.929228 3.28064 1.15333C2.7459 1.37744 2.26111 1.70574 1.85454 2.1191L13.0316 0.812502ZM13.0316 0.812502C13.6115 0.812661 14.1856 0.92827 14.7204 1.15259C15.2551 1.37691 15.7399 1.70544 16.1463 2.11904C16.9752 2.96287 17.4397 4.09841 17.4397 5.28125C17.4397 6.46391 16.9754 7.59929 16.1467 8.44307C16.1466 8.44322 16.1464 8.44336 16.1463 8.44351L9.00047 15.6802M13.0316 0.812502L9.00047 15.6802M9.00047 15.6802L1.85465 8.44351C1.85454 8.4434 1.85444 8.44329 1.85433 8.44318C1.02561 7.59939 0.561279 6.46396 0.561279 5.28125C0.561279 4.09846 1.02568 2.96295 1.85452 2.11913L9.00047 15.6802Z" fill="#BDBDBD" stroke="#252B42" stroke-width="0.625"/>
</svg>
