<svg width="77" height="73" viewBox="0 0 77 73" fill="none" xmlns="http://www.w3.org/2000/svg">
<g clip-path="url(#clip0_1_6937)">
<path d="M67.9261 28.1617C65.5311 28.1617 63.4236 29.1559 61.8748 30.7113C56.1748 26.7505 48.495 24.2009 39.9849 23.9283L44.4076 3.9158L58.49 7.09085C58.49 10.5546 61.3 13.3768 64.7488 13.3768C68.2614 13.3768 71.0874 10.4744 71.0874 7.01068C71.0874 3.54698 68.2773 0.644531 64.7488 0.644531C62.29 0.644531 60.1664 2.13585 59.1126 4.17237L43.5614 0.708674C42.779 0.500211 42.0126 1.06146 41.8051 1.8472L36.9513 23.9122C28.5051 24.265 20.9051 26.8147 15.1891 30.7755C13.6404 29.1559 11.453 28.1617 9.05802 28.1617C0.180712 28.1617 -2.72517 40.1243 5.40172 44.2133C5.11433 45.4802 4.98659 46.8271 4.98659 48.1741C4.98659 61.612 20.0589 72.5002 38.5639 72.5002C57.1488 72.5002 72.221 61.612 72.221 48.1741C72.221 46.8271 72.0773 45.416 71.7261 44.1492C79.6933 40.0441 76.7555 28.1617 67.9261 28.1617ZM18.2866 45.0632C18.2866 41.5354 21.0967 38.6971 24.6252 38.6971C28.074 38.6971 30.8841 41.5194 30.8841 45.0632C30.8841 48.5269 28.074 51.3492 24.6252 51.3492C21.1126 51.3652 18.2866 48.5269 18.2866 45.0632ZM52.5026 60.0565C46.6908 65.8935 30.2933 65.8935 24.4816 60.0565C23.8429 59.4953 23.8429 58.5011 24.4816 57.8597C25.0404 57.2984 26.0303 57.2984 26.5891 57.8597C31.0278 62.4298 45.7488 62.51 50.379 57.8597C50.9379 57.2984 51.9278 57.2984 52.4866 57.8597C53.1412 58.5011 53.1412 59.4953 52.5026 60.0565ZM52.3748 51.3652C48.9261 51.3652 46.116 48.543 46.116 45.0793C46.116 41.5514 48.9261 38.7131 52.3748 38.7131C55.8874 38.7131 58.7135 41.5354 58.7135 45.0793C58.6975 48.5269 55.8874 51.3652 52.3748 51.3652Z" fill="#737373"/>
</g>
<defs>
<clipPath id="clip0_1_6937">
<rect width="76" height="72" fill="white" transform="translate(0.5 0.5)"/>
</clipPath>
</defs>
</svg>
