<svg width="23" height="23" viewBox="0 0 23 23" fill="none" xmlns="http://www.w3.org/2000/svg">
<path d="M20.1308 8.41964C20.0732 8.24983 19.967 8.10061 19.8256 7.99043C19.6841 7.88024 19.5134 7.81389 19.3347 7.79959L14.1055 7.38408L11.8427 2.37506C11.7706 2.21373 11.6534 2.07671 11.5052 1.98052C11.357 1.88434 11.1841 1.8331 11.0074 1.83301C10.8307 1.83291 10.6577 1.88395 10.5094 1.97998C10.3611 2.076 10.2437 2.2129 10.1715 2.37415L7.90867 7.38408L2.67951 7.79959C2.50382 7.8135 2.33586 7.87774 2.19572 7.98462C2.05559 8.0915 1.94921 8.23648 1.88931 8.40224C1.82941 8.56799 1.81854 8.74749 1.85799 8.91926C1.89744 9.09103 1.98553 9.2478 2.11175 9.37081L5.97605 13.1379L4.60937 19.0559C4.56788 19.235 4.58118 19.4225 4.64755 19.594C4.71392 19.7655 4.8303 19.913 4.98159 20.0175C5.13288 20.1221 5.31208 20.1787 5.49596 20.1801C5.67983 20.1815 5.85988 20.1276 6.01274 20.0254L11.0071 16.6958L16.0014 20.0254C16.1577 20.1291 16.3419 20.1825 16.5294 20.1784C16.7169 20.1743 16.8986 20.1129 17.0502 20.0024C17.2017 19.8919 17.3158 19.7377 17.3771 19.5604C17.4383 19.3832 17.4438 19.1914 17.3929 19.0109L15.7152 13.1406L19.8758 9.39649C20.1482 9.15067 20.2482 8.76727 20.1308 8.41964Z" fill="#F3CD03"/>
</svg>
