<svg width="23" height="23" viewBox="0 0 23 23" fill="none" xmlns="http://www.w3.org/2000/svg">
<path d="M6.03166 13.1374L4.66498 19.0554C4.62266 19.2346 4.63536 19.4224 4.70143 19.5943C4.7675 19.7662 4.88387 19.9141 5.03533 20.0188C5.18679 20.1235 5.36631 20.1801 5.55043 20.1812C5.73456 20.1823 5.91474 20.1278 6.06743 20.0249L11.0618 16.6954L16.0561 20.0249C16.2123 20.1287 16.3966 20.1821 16.5841 20.178C16.7716 20.1739 16.9533 20.1124 17.1049 20.0019C17.2564 19.8915 17.3705 19.7372 17.4317 19.56C17.493 19.3827 17.4985 19.191 17.4476 19.0105L15.7699 13.1402L19.9305 9.39603C20.0638 9.27605 20.1589 9.11963 20.2042 8.94614C20.2495 8.77264 20.243 8.58967 20.1854 8.41986C20.1278 8.25004 20.0217 8.10083 19.8802 7.99067C19.7388 7.88051 19.5681 7.81423 19.3893 7.80004L14.1602 7.38362L11.8974 2.3746C11.8252 2.21331 11.7079 2.07635 11.5597 1.98025C11.4114 1.88415 11.2385 1.83301 11.0618 1.83301C10.8851 1.83301 10.7122 1.88415 10.5639 1.98025C10.4156 2.07635 10.2983 2.21331 10.2262 2.3746L7.96335 7.38362L2.7342 7.79913C2.55851 7.81305 2.39055 7.87729 2.25041 7.98416C2.11027 8.09104 2.00389 8.23602 1.944 8.40178C1.8841 8.56753 1.87323 8.74703 1.91268 8.9188C1.95212 9.09057 2.04022 9.24734 2.16643 9.37035L6.03166 13.1374ZM8.64853 9.16947C8.81225 9.15658 8.96948 9.09987 9.10375 9.0053C9.23802 8.91073 9.34438 8.78179 9.41167 8.63198L11.0618 4.98047L12.7119 8.63198C12.7792 8.78179 12.8855 8.91073 13.0198 9.0053C13.1541 9.09987 13.3113 9.15658 13.475 9.16947L17.1183 9.4584L14.118 12.1587C13.8575 12.3936 13.7539 12.7549 13.8492 13.0925L14.9985 17.1146L11.5718 14.8297C11.4213 14.7288 11.2443 14.6749 11.0631 14.6749C10.882 14.6749 10.7049 14.7288 10.5545 14.8297L6.97366 17.2173L7.93675 13.0475C7.97207 12.8942 7.96733 12.7343 7.92299 12.5833C7.87866 12.4323 7.79621 12.2953 7.6836 12.1853L4.89704 9.46849L8.64853 9.16947Z" fill="#F3CD03"/>
</svg>
