<svg width="30" height="25" viewBox="0 0 30 25" fill="none" xmlns="http://www.w3.org/2000/svg">
<g clip-path="url(#clip0_232_866)">
<path d="M30 3.48277C28.8766 3.98044 27.685 4.30711 26.4649 4.45191C27.7358 3.69019 28.7116 2.48398 29.1711 1.0468C27.963 1.76373 26.6412 2.26886 25.2628 2.54035C24.14 1.34422 22.5405 0.59668 20.7702 0.59668C17.3711 0.59668 14.6152 3.35246 14.6152 6.75137C14.6152 7.23383 14.6696 7.70351 14.7745 8.1541C9.6593 7.89734 5.12414 5.44707 2.0884 1.72332C1.55871 2.63234 1.2552 3.68973 1.2552 4.81754C1.2552 6.95293 2.34188 8.83672 3.99328 9.94051C3.01588 9.90989 2.05998 9.64591 1.20539 9.17058C1.20504 9.19637 1.20504 9.22215 1.20504 9.24804C1.20504 12.2301 3.3266 14.7178 6.14215 15.2832C5.2358 15.5297 4.28511 15.5658 3.3627 15.3887C4.14586 17.8339 6.41895 19.6133 9.11215 19.6631C7.0057 21.3138 4.35176 22.2978 1.46824 22.2978C0.971367 22.2978 0.481523 22.2686 0 22.2118C2.72379 23.9581 5.95898 24.9771 9.43477 24.9771C20.7559 24.9771 26.9466 15.5984 26.9466 7.46515C26.9466 7.1982 26.9407 6.93277 26.9288 6.66887C28.1337 5.79779 29.1737 4.71888 30 3.48277Z" fill="#252B42"/>
</g>
<defs>
<clipPath id="clip0_232_866">
<rect width="30" height="24.4922" fill="white" transform="translate(0 0.5)"/>
</clipPath>
</defs>
</svg>
