<svg width="17" height="16" viewBox="0 0 17 16" fill="none" xmlns="http://www.w3.org/2000/svg">
<g clip-path="url(#clip0_1_6740)">
<path d="M5.02649 14.0007C11.0645 14.0007 14.3675 8.99769 14.3675 4.66669C14.3675 4.52669 14.3675 4.38469 14.3615 4.24469C15.0045 3.77918 15.5595 3.20284 16.0005 2.54269C15.3998 2.80754 14.7632 2.9821 14.1115 3.06069C14.798 2.65033 15.3122 2.00466 15.5585 1.24369C14.9135 1.62582 14.2075 1.89407 13.4715 2.03669C12.9767 1.50972 12.3219 1.16061 11.6086 1.04345C10.8953 0.92629 10.1632 1.04761 9.52583 1.38863C8.88844 1.72965 8.3813 2.27132 8.08294 2.92975C7.78458 3.58818 7.71167 4.32663 7.87549 5.03069C6.57023 4.96524 5.2933 4.62616 4.12753 4.03544C2.96176 3.44471 1.93317 2.61554 1.10849 1.60169C0.689828 2.32478 0.562062 3.18009 0.751134 3.99396C0.940207 4.80782 1.43194 5.51922 2.12649 5.98369C1.60603 5.96601 1.09701 5.82625 0.640488 5.57569V5.62069C0.641386 6.37817 0.903795 7.11211 1.38336 7.69845C1.86293 8.28479 2.53024 8.68757 3.27249 8.83869C2.99075 8.91631 2.69972 8.955 2.40749 8.95369C2.20147 8.95432 1.99587 8.93523 1.79349 8.89669C2.00327 9.54875 2.41176 10.1189 2.96174 10.5272C3.51171 10.9355 4.17562 11.1615 4.86049 11.1737C3.69704 12.0875 2.25989 12.5831 0.780488 12.5807C0.519809 12.5818 0.259311 12.5668 0.000488281 12.5357C1.502 13.493 3.24579 14.0012 5.02649 14.0007Z" fill="white"/>
</g>
<defs>
<clipPath id="clip0_1_6740">
<rect width="16" height="16" fill="white" transform="translate(0.500488)"/>
</clipPath>
</defs>
</svg>
