<svg width="17" height="16" viewBox="0 0 17 16" fill="none" xmlns="http://www.w3.org/2000/svg">
<g clip-path="url(#clip0_1_6734)">
<path d="M9.05149 1.99902H9.14049C9.96249 2.00202 14.1275 2.03202 15.2505 2.33402C15.59 2.42619 15.8993 2.60585 16.1476 2.85503C16.396 3.10422 16.5745 3.41421 16.6655 3.75402C16.7665 4.13402 16.8375 4.63702 16.8855 5.15602L16.8955 5.26002L16.9175 5.52002L16.9255 5.62402C16.9905 6.53802 16.9985 7.39402 16.9995 7.58102V7.65602C16.9985 7.85002 16.9895 8.76402 16.9175 9.71602L16.9095 9.82102L16.9005 9.92502C16.8505 10.497 16.7765 11.065 16.6655 11.483C16.5748 11.823 16.3963 12.1331 16.148 12.3823C15.8996 12.6316 15.5901 12.8111 15.2505 12.903C14.0905 13.215 9.68149 13.237 9.07049 13.238H8.92849C8.61949 13.238 7.34149 13.232 6.00149 13.186L5.83149 13.18L5.74449 13.176L5.57349 13.169L5.40249 13.162C4.29249 13.113 3.23549 13.034 2.74849 12.902C2.40898 12.8102 2.09955 12.6308 1.85121 12.3818C1.60287 12.1327 1.42434 11.8228 1.33349 11.483C1.22249 11.066 1.14849 10.497 1.09849 9.92502L1.09049 9.82002L1.08249 9.71602C1.03314 9.03842 1.00579 8.3594 1.00049 7.68002L1.00049 7.55702C1.00249 7.34202 1.01049 6.59902 1.06449 5.77902L1.07149 5.67602L1.07449 5.62402L1.08249 5.52002L1.10449 5.26002L1.11449 5.15602C1.16249 4.63702 1.23349 4.13302 1.33449 3.75402C1.42518 3.41407 1.60365 3.10393 1.852 2.85471C2.10035 2.60548 2.40986 2.42592 2.74949 2.33402C3.23649 2.20402 4.29349 2.12402 5.40349 2.07402L5.57349 2.06702L5.74549 2.06102L5.83149 2.05802L6.00249 2.05102C6.9542 2.0204 7.90629 2.0034 8.85849 2.00002H9.05149V1.99902ZM7.40049 5.20902V10.027L11.5575 7.61902L7.40049 5.20902Z" fill="white"/>
</g>
<defs>
<clipPath id="clip0_1_6734">
<rect width="16" height="16" fill="white" transform="translate(0.500488)"/>
</clipPath>
</defs>
</svg>
